# xmcd
#
# Track frame offsets:
#	150
#	15396
#	32736
#	50437
#	68218
#	88816
#	104202
#	119294
#	138513
#	157000
#	174574
#	192180
#	215068
#	231644
#
# Disc length: 3364 seconds
#
# Revision: 1
# Processed by: cddbd v1.5.2PL0 Copyright (c) Steve Scherf et al.
# Submitted via: audiograbber 1.83.01
#
DISCID=d10d220e
DTITLE=Marc Sway - Black and White
DYEAR=2014
DGENRE=Pop
TTITLE0=Feel The Same
TTITLE1=Black And White Stripes
TTITLE2=Remedy
TTITLE3=Move On
TTITLE4=Rainy Day
TTITLE5=Better Than This
TTITLE6=Love Insane
TTITLE7=Stop Loving Me
TTITLE8=Following You
TTITLE9=You Can Count On Me
TTITLE10=I Can See The World
TTITLE11=Going With You
TTITLE12=On My Own
TTITLE13=Let's Stay Home
EXTD=
EXTT0=
EXTT1=
EXTT2=
EXTT3=
EXTT4=
EXTT5=
EXTT6=
EXTT7=
EXTT8=
EXTT9=
EXTT10=
EXTT11=
EXTT12=
EXTT13=
PLAYORDER=
